# xmcd
#
# Track frame offsets:
#	150
#	10931
#	29119
#	37904
#	48304
#	56655
#	73811
#	89670
#	101528
#	109365
#	126376
#	139023
#	147971
#	168177
#	180671
#	190450
#	200764
#	216197
#	228647
#	252185
#	261380
#	273426
#
# Disc length: 3842 seconds
#
# Revision: 1
# Processed by: cddbd v1.5.1PL2 Copyright (c) Steve Scherf et al.
# Submitted via: audiograbber 1.80
#
DISCID=5b0f0016
DTITLE=Reprezentacyjny Zespol Artystyczny Wojska Polskiego - Tradycyjne Koledy 
DTITLE=Polskie
DYEAR=1900
DGENRE=
TTITLE0=Bracia patrzcie jeno
TTITLE1=Lulajze Jezuniu
TTITLE2=W Betlejem w stajence
TTITLE3=Jezus malusienki
TTITLE4=Pojdzmy wszyscy do stajenki
TTITLE5=Wsrod nocnej ciszy
TTITLE6=Dzisiaj w Betlejem
TTITLE7=Mizerna cicha
TTITLE8=Przystapmy do szopy
TTITLE9=Koleda wojenna
TTITLE10=Oj maluski maluski
TTITLE11=Przybiezeli do Betlejem
TTITLE12=Gdy sliczna Panna
TTITLE13=Do szopy hej pasterze
TTITLE14=Z narodzenia Pana
TTITLE15=Aniol pasterzom mowil
TTITLE16=Nie bylo miejsca dla Ciebie
TTITLE17=Medrcy swiata monarchowie
TTITLE18=Gdy sie Chrystus rodzi
TTITLE19=Tryumfy Krola Niebieskiego
TTITLE20=Cicha noc
TTITLE21=Bog sie rodzi
EXTD=Polish Christmas Songs
EXTT0=
EXTT1=
EXTT2=
EXTT3=
EXTT4=
EXTT5=
EXTT6=
EXTT7=
EXTT8=
EXTT9=
EXTT10=
EXTT11=
EXTT12=
EXTT13=
EXTT14=
EXTT15=
EXTT16=
EXTT17=
EXTT18=
EXTT19=
EXTT20=
EXTT21=
PLAYORDER=
